<svg width="260" height="200" viewBox="0 0 260 200" fill="none" xmlns="http://www.w3.org/2000/svg">
<path d="M127.311 198.529L129.996 200L132.682 198.529C138.642 195.262 191.254 165.56 203.736 129.549C219.699 83.4938 208.347 21.7952 207.857 19.188L207.452 17.0355L205.562 15.8136C204.567 15.1671 180.605 0 130.046 0H130.039H129.854C79.3943 0 55.4323 15.1742 54.4378 15.8136L52.5481 17.0355L52.1432 19.188C51.653 21.7952 40.2936 83.4867 56.2635 129.549C68.7382 165.567 121.351 195.262 127.311 198.529Z" fill="#01579B"/>
<path d="M56.8887 99.4352C58.075 108.99 60.0073 118.524 62.9697 127.439C74.3149 161.574 122.139 189.72 127.553 192.818L129.996 194.21V99.4352H56.8887Z" fill="#0DB7ED"/>
<path d="M129.996 4.65314H129.868C84.0048 4.65314 62.2167 19.0317 61.3145 19.6427L59.5953 20.8006L59.2259 22.8395C58.8707 24.8002 52.2639 62.2243 56.8887 99.4281H129.996V4.65314V4.65314Z" fill="white"/>
<path d="M203.104 99.4352C207.729 62.2314 201.122 24.8073 200.767 22.8466L200.397 20.8077L198.678 19.6498C197.776 19.0388 175.995 4.66025 130.039 4.66025H130.032H129.996V99.4352H203.104Z" fill="#0DB7ED"/>
<path d="M129.996 99.4352V194.21L132.44 192.811C137.853 189.713 185.678 161.56 197.023 127.432C199.985 118.517 201.918 108.976 203.104 99.4281H129.996V99.4352Z" fill="white"/>
<path d="M113.167 61.3434C110.354 61.3434 108.066 59.0559 108.066 56.2427C108.066 53.4295 110.354 51.142 113.167 51.142C115.98 51.142 118.268 53.4295 118.268 56.2427C118.268 59.0559 115.98 61.3434 113.167 61.3434ZM113.167 53.9836C111.924 53.9836 110.908 54.9995 110.908 56.2427C110.908 57.4859 111.924 58.5018 113.167 58.5018C114.41 58.5018 115.426 57.4859 115.426 56.2427C115.426 54.9995 114.417 53.9836 113.167 53.9836Z" fill="#01579B"/>
<path d="M93.0269 63.2615L86.0649 56.2995L93.0269 49.3376L99.9889 56.2995L93.0269 63.2615ZM90.5902 56.2995L93.0269 58.7362L95.4636 56.2995L93.0269 53.8628L90.5902 56.2995Z" fill="#0DB7ED"/>
<path d="M85.0775 42.88H81.8807V69.6125H85.0775V42.88Z" fill="#0DB7ED"/>
<path d="M78.8615 42.88H75.6646V69.6125H78.8615V42.88Z" fill="#0DB7ED"/>
<path d="M72.6525 42.88H69.4557V69.6125H72.6525V42.88Z" fill="#0DB7ED"/>
<path d="M183.909 77.2493H145.696C144.652 77.2493 143.799 76.3968 143.799 75.3526V37.1399C143.799 36.0956 144.652 35.2431 145.696 35.2431H183.909C184.953 35.2431 185.806 36.0956 185.806 37.1399V75.3526C185.813 76.3968 184.96 77.2493 183.909 77.2493ZM145.696 36.9623C145.604 36.9623 145.526 37.0405 145.526 37.1328V75.3454C145.526 75.4378 145.604 75.5159 145.696 75.5159H183.909C184.001 75.5159 184.079 75.4378 184.079 75.3454V37.1399C184.079 37.0476 184.001 36.9694 183.909 36.9694H145.696V36.9623Z" fill="white"/>
<path d="M178.609 70.0459H151.003V42.4467H178.609V70.0459ZM152.729 68.3196H176.876V44.1729H152.729V68.3196Z" fill="white"/>
<path d="M184.035 35.7951L177.133 42.6971L178.353 43.9178L185.255 37.0158L184.035 35.7951Z" fill="white"/>
<path d="M145.571 35.7961L144.35 37.0168L151.252 43.9188L152.473 42.6981L145.571 35.7961Z" fill="white"/>
<path d="M151.258 68.5734L144.356 75.4754L145.577 76.6961L152.479 69.7941L151.258 68.5734Z" fill="white"/>
<path d="M178.349 68.5725L177.129 69.7931L184.031 76.6951L185.251 75.4744L178.349 68.5725Z" fill="white"/>
<path d="M157.326 70.0459H151.003V63.7304L172.287 42.4467H178.609V48.7622L157.326 70.0459ZM152.729 68.3196H156.608L176.876 48.0446V44.1729H172.997L152.729 64.4479V68.3196Z" fill="white"/>
<path d="M81.6889 118.502V122.054H83.3938V120.2H106.759V137.797H83.3938V135.758H81.6889V139.502H108.464V118.502H81.6889Z" fill="white"/>
<path d="M86.8464 125.507H73.4127C72.9438 125.507 72.5602 125.123 72.5602 124.655C72.5602 124.186 72.9438 123.802 73.4127 123.802H86.8464C87.3153 123.802 87.6989 124.186 87.6989 124.655C87.6989 125.123 87.3153 125.507 86.8464 125.507Z" fill="white"/>
<path d="M91.2793 129.741H70.0525C69.5836 129.741 69.2 129.357 69.2 128.889C69.2 128.42 69.5836 128.036 70.0525 128.036H91.2793C91.7482 128.036 92.1318 128.42 92.1318 128.889C92.1318 129.365 91.7482 129.741 91.2793 129.741Z" fill="white"/>
<path d="M82.925 133.982H74.4854C74.0165 133.982 73.6329 133.599 73.6329 133.13C73.6329 132.661 74.0165 132.277 74.4854 132.277H82.925C83.3938 132.277 83.7775 132.661 83.7775 133.13C83.7775 133.599 83.4009 133.982 82.925 133.982Z" fill="white"/>
<path d="M122.786 134.877L120.832 133.535L118.125 128.334C117.962 127.958 117.039 126.111 114.51 126.111H106.759V142.621H114.63C114.623 142.585 114.623 142.55 114.616 142.514C114.559 141.96 114.694 141.406 114.957 140.916H108.464V127.816H114.517C116.016 127.816 116.499 128.853 116.563 129.002L116.577 129.038L119.525 134.7L121.841 136.291L121.876 136.312C121.884 136.319 122.8 136.916 122.8 137.619V140.695C122.8 140.752 122.8 140.774 122.665 140.83C122.502 140.901 122.296 140.916 122.232 140.916H120.349C120.356 140.937 120.356 140.951 120.363 140.973C120.491 141.541 120.463 141.825 120.363 142.4C120.349 142.479 120.328 142.55 120.299 142.628H122.232C123.361 142.628 124.505 141.967 124.505 140.695V137.619C124.498 136.028 123.049 135.041 122.786 134.877Z" fill="white"/>
<path d="M120.179 134.97H112.435C111.966 134.97 111.583 134.586 111.583 134.117C111.583 133.648 111.966 133.265 112.435 133.265H120.186C120.655 133.265 121.038 133.648 121.038 134.117C121.031 134.586 120.655 134.97 120.179 134.97Z" fill="white"/>
<path d="M117.593 145.654C115.454 145.654 113.707 143.914 113.707 141.768C113.707 139.63 115.447 137.882 117.593 137.882C119.731 137.882 121.479 139.623 121.479 141.768C121.479 143.914 119.738 145.654 117.593 145.654ZM117.593 139.594C116.392 139.594 115.412 140.575 115.412 141.775C115.412 142.976 116.392 143.956 117.593 143.956C118.793 143.956 119.774 142.976 119.774 141.775C119.774 140.568 118.793 139.594 117.593 139.594Z" fill="white"/>
<path d="M123.553 136.959H121.28V138.664H123.553V136.959Z" fill="white"/>
<path d="M85.1841 142.23C85.2054 141.832 85.1983 141.427 85.3403 141.051C85.3546 141.008 85.3759 140.958 85.3901 140.916H82.5414V142.621H85.1485C85.1485 142.493 85.1627 142.365 85.1841 142.23Z" fill="white"/>
<path d="M90.782 140.923C90.8531 141.157 90.8886 141.385 90.9241 141.74C90.9383 141.903 90.9454 142.067 90.9596 142.23C90.9667 142.365 90.9667 142.493 90.9454 142.621H109.018V140.916H90.782V140.923Z" fill="white"/>
<path d="M88.0044 145.654C85.866 145.654 84.1185 143.914 84.1185 141.768C84.1185 139.63 85.8589 137.882 88.0044 137.882C90.1427 137.882 91.8903 139.623 91.8903 141.768C91.8832 143.914 90.1427 145.654 88.0044 145.654ZM88.0044 139.594C86.8038 139.594 85.8234 140.575 85.8234 141.775C85.8234 142.976 86.8038 143.956 88.0044 143.956C89.2049 143.956 90.1853 142.976 90.1853 141.775C90.1782 140.568 89.2049 139.594 88.0044 139.594Z" fill="white"/>
<path d="M155.18 149.1C154.271 149.1 153.411 148.744 152.765 148.098L142.173 137.506C141.526 136.859 141.171 136.007 141.171 135.09C141.171 134.181 141.526 133.321 142.173 132.675C142.819 132.029 143.672 131.673 144.588 131.673C145.497 131.673 146.357 132.029 147.003 132.675L155.18 140.852L179.98 116.052C180.627 115.405 181.479 115.05 182.396 115.05C183.305 115.05 184.165 115.405 184.811 116.052C185.458 116.698 185.813 117.551 185.813 118.467C185.813 119.376 185.458 120.236 184.811 120.882L157.596 148.098C156.949 148.744 156.097 149.1 155.18 149.1Z" fill="#01579B"/>
<path d="M76.4177 71.3885C63.4741 71.3885 63.1047 71.0262 62.5222 70.4721C61.9965 69.9677 61.2079 69.2004 61.2079 55.6672C61.2079 43.3488 61.9681 42.61 62.5222 42.0772C63.2539 41.3739 63.737 40.9051 88.8639 41.1821C100.934 41.3171 113.032 41.5799 113.153 41.5799C113.622 41.587 114.069 41.786 114.396 42.1269C126.288 54.5377 126.288 55.6246 126.288 56.4203C126.288 57.223 126.288 58.3171 114.382 70.4436C114.055 70.7775 113.614 70.9622 113.146 70.9764C113.025 70.9764 100.898 71.2109 88.8071 71.3245C83.7419 71.3672 79.6784 71.3885 76.4177 71.3885ZM65.172 67.6375C70.4787 68.0354 95.9254 67.7441 112.35 67.4315C116.619 63.0625 121.13 58.2105 122.48 56.4061C121.138 54.5661 116.619 49.5933 112.336 45.1106C95.8898 44.7554 70.3295 44.4144 65.1507 44.8833C64.6037 48.7053 64.6179 63.6096 65.172 67.6375Z" fill="#01579B"/>
</svg>
